# xmcd
#
# Track frame offsets:
#	150
#	32193
#	60317
#	79949
#	107295
#	137409
#	156160
#	196923
#	226289
#	261169
#
# Disc length: 3879 seconds
#
# Revision: 0
# Processed by: cddbd v1.5.2PL0 Copyright (c) Steve Scherf et al.
# Submitted via: EasyCDDAExtractor 2011.0.0.0
#
DISCID=760f250a
DTITLE=Atisti Vari - Club Music
DYEAR=1900
DGENRE=Blues
TTITLE0=Bagdad Cafs' - Callin U
TTITLE1=Aim - The Girl Who Fell Through The Ice
TTITLE2=Brother Of Soul - Eyes Of Love
TTITLE3=Taxi - Take What You Want
TTITLE4=Solar House - Got 2 B U
TTITLE5=Yoshinori Sunahara - The New World Break
TTITLE6=Phung Diggaz - Mr. Medicine Man
TTITLE7=Weekender - Spirit In Your Soul
TTITLE8=Mettle Music - Tranquillity
TTITLE9=Butti 49 - Spiritual Rotations
EXTD=
EXTT0=
EXTT1=
EXTT2=
EXTT3=
EXTT4=
EXTT5=
EXTT6=
EXTT7=
EXTT8=
EXTT9=
PLAYORDER=
